<?xml version="1.0" standalone="no"?><!DOCTYPE svg PUBLIC "-//W3C//DTD SVG 1.1//EN" "http://www.w3.org/Graphics/SVG/1.1/DTD/svg11.dtd"><svg t="1553665252364" class="icon" style="" viewBox="0 0 1024 1024" version="1.1" xmlns="http://www.w3.org/2000/svg" p-id="3232" xmlns:xlink="http://www.w3.org/1999/xlink" width="200" height="200"><defs><style type="text/css"></style></defs><path d="M302 223.3c-43.4 0-78.7 35.3-78.7 78.7s35.3 78.7 78.7 78.7 78.7-35.3 78.7-78.7-35.3-78.7-78.7-78.7z m0 105c-14.5 0-26.2-11.8-26.2-26.2 0-14.5 11.8-26.2 26.2-26.2 14.5 0 26.2 11.8 26.2 26.2 0 14.4-11.7 26.2-26.2 26.2z" p-id="3233" fill="#27BCD5"></path><path d="M912.6 541.4l-430-430c-9.8-9.8-23.2-15.4-37.1-15.4h-0.2l-296.1 0.9c-28.8 0.1-52.2 23.5-52.3 52.4l-0.9 296c0 14 5.5 27.4 15.4 37.3l430 430c10.3 10.3 23.7 15.4 37.1 15.4s26.9-5.1 37.1-15.4l297-297c20.5-20.5 20.5-53.7 0-74.2zM578.5 875.5l-430-430 0.9-296.1 295.9-0.9h0.2l430 430-297 297z" p-id="3234" fill="#27BCD5"></path></svg>